<?xml version="1.0" ?><svg height="64px" version="1.1" viewBox="0 0 64 64" width="64px" xmlns="http://www.w3.org/2000/svg" xmlns:xlink="http://www.w3.org/1999/xlink"><title/><desc/><g fill="none" fill-rule="evenodd" id="Chat-2" stroke="none" stroke-width="1"><path d="M52,7.5 L10,7.5 C6.41014913,7.5 3.5,10.4101491 3.5,14 L3.5,43.5 L3.59403184,55.7595304 L21.493,43.5 L52,43.5 C55.5898509,43.5 58.5,40.5898509 58.5,37 L58.5,14 C58.5,10.4101491 55.5898509,7.5 52,7.5 Z M10,12.5 L52,12.5 C52.8284271,12.5 53.5,13.1715729 53.5,14 L53.5,37 C53.5,37.8284271 52.8284271,38.5 52,38.5 L19.9469917,38.5 L8.593,46.275 L8.59282523,38.5 L8.5,38.5 L8.5,14 C8.5,13.1715729 9.17157288,12.5 10,12.5 Z" fill="#000000" fill-rule="nonzero" id="Combined-Shape"/><path d="M20.016129,16 L40.983871,16 C42.0973483,16 43,17.1192881 43,18.5 C43,19.8807119 42.0973483,21 40.983871,21 L20.016129,21 C18.9026517,21 18,19.8807119 18,18.5 C18,17.1192881 18.9026517,16 20.016129,16 Z" fill="#000000" id="Rectangle"/><path d="M20.016129,23 L40.983871,23 C42.0973483,23 43,24.1192881 43,25.5 C43,26.8807119 42.0973483,28 40.983871,28 L20.016129,28 C18.9026517,28 18,26.8807119 18,25.5 C18,24.1192881 18.9026517,23 20.016129,23 Z" fill="#000000" id="Rectangle"/><path d="M20.016129,30 L40.983871,30 C42.0973483,30 43,31.1192881 43,32.5 C43,33.8807119 42.0973483,35 40.983871,35 L20.016129,35 C18.9026517,35 18,33.8807119 18,32.5 C18,31.1192881 18.9026517,30 20.016129,30 Z" fill="#000000" id="Rectangle"/></g></svg>